#!OML:ASF H:\Terrain\Walking\May29\JustinRory\Justin.ASF
:FULLY-SPECIFIED
:DEGREES
227
root 7.46002 17.2863 16.0027 -254.928 -79.6036 267.122
lowerback 19.3683 -1.07568 -2.33566
upperback 5.1854 -1.965 3.95182
thorax -5.00119 -1.10884 6.05473
lowerneck 1.03468 -20.6717 -14.701
upperneck 1.49747 -30.0764 26.8011
head 6.80912 -14.9034 7.40505
rclavicle -8.34896e-015 3.89618e-014
rhumerus -31.2929 -45.3873 -10.1078
rradius 31.3541
rwrist -50.627
rhand -2.93217 -1.1288
rfingers 7.12502
rthumb 22.7791 -29.8039
lclavicle -8.34896e-015 3.89618e-014
lhumerus -38.9466 10.489 73.2644
lradius 56.8344
lwrist -2.70669
lhand -2.28407 30.399
lfingers 7.12502
lthumb 23.4009 58.9963
rfemur -16.6442 -11.7174 9.1549
rtibia 37.5681
rfoot -2.81626 -2.8292
rtoes -28.6736
lfemur -46.9304 17.6864 -6.73455
ltibia 66.3233
lfoot -16.6457 -13.2056
ltoes -18.7704
228
root 7.467 17.2697 16.0251 -257.291 -79.3683 269.556
lowerback 19.5535 -1.05273 -2.53073
upperback 5.29005 -1.98153 3.96608
thorax -4.97583 -1.12182 6.19299
lowerneck 0.76937 -20.475 -14.8481
upperneck 1.6349 -29.8425 26.9814
head 6.90737 -14.7665 7.49163
rclavicle 2.78299e-015 -1.66979e-014
rhumerus -31.9205 -45.7085 -10.2269
rradius 31.6337
rwrist -51.527
rhand -2.56819 -0.894502
rfingers 7.12502
rthumb 23.1283 -29.5262
lclavicle 2.78299e-015 -1.66979e-014
lhumerus -38.6981 10.8784 73.4312
lradius 58.3636
lwrist -3.05418
lhand -1.85411 29.7812
lfingers 7.12502
lthumb 23.8133 58.3253
rfemur -16.7173 -11.9108 10.0951
rtibia 38.0336
rfoot -3.00752 -1.57968
rtoes -29.3059
lfemur -47.5086 17.5704 -5.99771
ltibia 67.0958
lfoot -17.4415 -9.93366
ltoes -18.8404
229
root 7.46414 17.2435 16.0409 -260.023 -79.2202 272.299
lowerback 19.7173 -0.972507 -2.7538
upperback 5.39975 -1.93157 3.90029
thorax -4.94406 -1.10122 6.24335
lowerneck 1.12244 -20.1987 -15.1258
upperneck 1.06543 -29.5055 27.8209
head 6.8075 -14.6763 7.8932
rclavicle 2.10712e-014 3.97569e-015
rhumerus -33.0326 -46.3071 -9.81854
rradius 31.7607
rwrist -51.9045
rhand -1.5786 -0.525028
rfingers 7.12502
rthumb 24.0775 -29.0344
lclavicle 2.10712e-014 3.97569e-015
lhumerus -38.4299 10.9405 73.5579
lradius 59.7584
lwrist -3.48798
lhand -1.67147 28.9226
lfingers 7.12502
lthumb 23.9885 57.4438
rfemur -16.4448 -11.9859 10.9128
rtibia 38.0933
rfoot -2.99951 -0.870622
rtoes -29.7817
lfemur -48.0173 17.4028 -5.32473
ltibia 67.8958
lfoot -17.7663 -7.37878
ltoes -15.8646
230
root 7.45456 17.2135 16.05 -262.967 -79.2234 275.269
lowerback 19.8158 -0.89055 -3.13862
upperback 5.50148 -1.91112 3.76089
thorax -4.87992 -1.09344 6.31031
lowerneck 1.24206 -20.2447 -14.9262
upperneck 0.959283 -29.5403 27.797
head 6.72625 -14.7133 7.87321
rclavicle -2.06736e-014 3.97569e-015
rhumerus -34.4079 -47.284 -9.1853
rradius 31.7955
rwrist -51.5203
rhand -0.544269 0.228121
rfingers 7.12502
rthumb 25.069 -28.1465
lclavicle -2.06736e-014 3.97569e-015
lhumerus -38.1897 10.6565 73.6697
lradius 61.2514
lwrist -3.20947
lhand -1.85612 28.4426
lfingers 7.12502
lthumb 23.8114 56.987
rfemur -15.9965 -11.9666 11.6056
rtibia 37.8678
rfoot -3.71696 -1.20189
rtoes -30.913
lfemur -48.4725 17.0607 -4.64844
ltibia 68.7073
lfoot -17.9487 -6.15608
ltoes -9.58661
231
root 7.43901 17.1729 16.062 -266.063 -79.7225 278.301
lowerback 19.9426 -0.772278 -4.11159
upperback 5.62637 -1.96258 3.56223
thorax -4.77534 -1.12084 6.67076
lowerneck 0.996022 -20.3718 -14.659
upperneck 1.34953 -29.6763 27.2525
head 6.77019 -14.7341 7.62099
rclavicle -4.85035e-014 2.06736e-014
rhumerus -35.6272 -47.1491 -9.08192
rradius 32.4786
rwrist -52.3555
rhand -0.721865 0.988274
rfingers 7.12502
rthumb 24.8988 -27.41
lclavicle -4.85035e-014 2.06736e-014
lhumerus -37.95 10.3797 73.9343
lradius 62.7703
lwrist -2.44888
lhand -2.33713 28.629
lfingers 7.12502
lthumb 23.35 57.2327
rfemur -15.2832 -12.1006 11.6569
rtibia 37.3986
rfoot -5.63985 -3.79741
rtoes -32.6621
lfemur -48.8533 16.7609 -4.62346
ltibia 69.4941
lfoot -18.4488 -5.48369
ltoes -6.47297
232
root 7.42842 17.0949 16.0799 -269.16 -79.7431 281.455
lowerback 19.993 -0.647497 -4.52211
upperback 5.7248 -1.88778 3.50009
thorax -4.69266 -1.08929 6.82312
lowerneck 0.823869 -20.4045 -14.7196
upperneck 1.49475 -29.7173 27.1814
head 6.84889 -14.7309 7.57319
rclavicle 2.54444e-014 1.98785e-014
rhumerus -37.0992 -46.831 -8.76773
rradius 33.4736
rwrist -53.9276
rhand -1.44357 1.13299
rfingers 7.12502
rthumb 24.207 -27.3592
lclavicle 2.54444e-014 1.98785e-014
lhumerus -37.5814 10.0134 74.3307
lradius 64.1304
lwrist -1.94146
lhand -2.95688 28.9292
lfingers 7.12502
lthumb 22.7553 57.6073
rfemur -14.5852 -12.2939 12.0704
rtibia 36.7384
rfoot -7.80973 -7.2226
rtoes -34.5472
lfemur -49.5819 16.8595 -4.46646
ltibia 70.244
lfoot -18.8339 -4.18902
ltoes -8.7402
